<svg id="Layer_1" enable-background="new 0 0 512 512" height="512" viewBox="0 0 512 512" width="512" xmlns="http://www.w3.org/2000/svg"><g><path d="m256 10.998c-135.311 0-245.002 109.691-245.002 245.002 0 105.645 66.866 195.67 160.585 230.068l169.01-.067c93.626-34.446 160.409-124.423 160.409-230.001 0-135.311-109.691-245.002-245.002-245.002z" fill="#4fabf7"/><g><path d="m407.002 412.413c-.233 0-.467-.011-.703-.034-3.98-.384-6.895-3.921-6.512-7.901l2.818-29.237c.347-3.597 3.293-6.387 6.904-6.539l23.608-.992c3.96-.17 7.37 2.934 7.537 6.93.168 3.995-2.935 7.37-6.93 7.538l-17.31.728-2.212 22.963c-.363 3.742-3.515 6.544-7.2 6.544z" fill="#ffdd40"/></g><g><path d="m396.508 442.921-5.276-9.046c-1.244-2.133-1.315-4.753-.189-6.951l7.164-13.974c1.823-3.558 6.188-4.964 9.745-3.14 3.559 1.824 4.964 6.187 3.14 9.746l-5.356 10.447 3.28 5.623c2.015 3.454.848 7.887-2.607 9.902-3.468 2.024-7.897.832-9.901-2.607z" fill="#ffdd40"/></g><g><path d="m104.998 412.413c-3.686 0-6.838-2.802-7.199-6.546l-2.213-22.963-17.31-.728c-3.995-.168-7.098-3.543-6.93-7.538s3.567-7.095 7.537-6.93l23.608.992c3.611.152 6.557 2.942 6.903 6.539l2.818 29.237c.383 3.98-2.532 7.518-6.512 7.901-.235.025-.47.036-.702.036z" fill="#ffdd40"/></g><g><path d="m105.589 445.527c-3.454-2.015-4.62-6.448-2.606-9.902l3.281-5.623-5.356-10.447c-1.824-3.558-.419-7.921 3.139-9.746 3.56-1.824 7.923-.419 9.746 3.139l7.165 13.974c1.126 2.198 1.056 4.818-.189 6.951l-5.277 9.046c-2.021 3.467-6.459 4.617-9.903 2.608z" fill="#ffdd40"/></g><path d="m256 501.002c29.733 0 58.226-5.3 84.593-15.001-2.548-11.854-12.242-34.097-35.914-59.863-.812 2.26-2.1 4.375-3.858 6.191-30.23 31.223-60.401 30.006-89.452 0-1.758-1.816-3.046-3.931-3.858-6.191-23.716 25.815-33.402 48.093-35.929 59.93 26.318 9.659 54.752 14.934 84.418 14.934z" fill="#e9efff"/><path d="m268.526 462.531c1.173-2.955 1.119-6.207-.069-9.005-19.304 5.451-38.427-1.923-57.088-21.197-1.758-1.816-3.046-3.931-3.858-6.191-23.716 25.815-33.402 48.093-35.929 59.93 26.317 9.659 54.751 14.934 84.417 14.934 5.582 0 11.12-.187 16.609-.555-11.35-12.451-7.872-28.366-4.082-37.916z" fill="#d3dcfb"/><path d="m402.505 398.326c-12.034-5.749-22.031-11.89-27.98-15.798-.25 1.987-1.394 3.86-3.349 4.94l-5.296 2.926c-2.414 1.333-3.744 4.027-3.335 6.754l.863 5.751c.383 2.557-.745 4.92-2.639 6.306 11.586 4.307 23.733 8.333 34.907 10.275 5.236.91 10.394-1.962 12.363-6.899 2.18-5.466-.223-11.717-5.534-14.255z" fill="#ffdd40"/><path d="m390.245 392.004c-6.528-3.611-11.942-6.993-15.721-9.475-.25 1.987-1.394 3.86-3.349 4.94l-5.296 2.926c-2.414 1.333-3.744 4.027-3.335 6.754l.862 5.751c.384 2.557-.745 4.92-2.638 6.306 7.206 2.679 14.629 5.248 21.901 7.276-8.56-17.391 7.576-24.478 7.576-24.478z" fill="#ffb332"/><path d="m109.495 398.326c12.034-5.749 22.031-11.89 27.98-15.798.25 1.987 1.394 3.86 3.349 4.94l5.296 2.926c2.414 1.333 3.744 4.027 3.335 6.754l-.863 5.751c-.384 2.557.745 4.92 2.639 6.306-11.586 4.307-23.733 8.333-34.907 10.275-5.237.91-10.394-1.962-12.364-6.899-2.18-5.466.224-11.717 5.535-14.255z" fill="#ffdd40"/><path d="m151.232 409.206c-1.893-1.387-3.022-3.749-2.638-6.306l.862-5.751c.409-2.727-.921-5.421-3.335-6.754l-5.296-2.926c-1.955-1.08-3.099-2.953-3.349-4.94-3.778 2.482-9.193 5.864-15.72 9.475v.001s15.378 7.018 8.735 24.14c6.9-1.974 13.916-4.402 20.741-6.939z" fill="#ffb332"/><path d="m490.003 102.593c22.358-12.957 23.102-34.99 21.443-47.321-.568-4.22-5.786-6.338-9.393-3.795l-119.275 84.113c-11.871 8.294-16.683 22.681-12.363 36.06 13.102 40.578-16.188 53.869-26.359 57.182l-2.319 88.321c8.019-2.05 12.711-6.769 15.083-9.986 1.32-1.79 3.63-2.742 5.925-2.295 14.959 2.909 20.43-5.332 22.379-10.662.837-2.287 3.196-3.746 5.789-3.63 15.174.683 19.383-9.304 20.545-15.259.464-2.374 2.487-4.21 5.056-4.466 16.097-1.604 17.426-12.962 16.832-19.451-.231-2.529 1.376-4.832 3.924-5.672 14.353-4.729 13.941-17.635 12.782-23.958-.396-2.16.665-4.274 2.635-5.433 15.213-8.945 11.936-21.594 8.484-28.525-1.325-2.661-.242-5.823 2.528-7.149 14.975-7.171 13.17-20.971 11.207-27.688-.651-2.228.201-4.615 2.223-5.908 17.336-11.09 13.326-29.84 10.433-38.139-.839-2.407.158-5.017 2.441-6.339z" fill="#d34e3c"/><path d="m390 234.616c-19.666-5.333-19.681-27.493-19.681-27.495-6.362 13.788-19.97 19.661-26.263 21.711l-2.319 88.321c8.019-2.05 12.711-6.769 15.083-9.986 1.321-1.79 3.63-2.742 5.925-2.295 14.958 2.909 20.43-5.332 22.379-10.662.837-2.287 3.196-3.746 5.789-3.63 15.174.683 19.383-9.304 20.545-15.259.464-2.374 2.487-4.21 5.056-4.466-30.152-5.095-6.847-30.906-26.514-36.239z" fill="#b53921"/><path d="m167.944 228.832c-10.171-3.313-39.461-16.604-26.359-57.182 4.32-13.378-.492-27.766-12.363-36.06l-119.275-84.113c-3.607-2.543-8.825-.425-9.393 3.795-1.659 12.331-.916 34.364 21.443 47.321 2.283 1.323 3.28 3.932 2.441 6.339-2.893 8.3-6.904 27.05 10.433 38.139 2.022 1.294 2.875 3.68 2.223 5.908-1.963 6.717-3.768 20.517 11.207 27.688 2.769 1.326 3.853 4.488 2.528 7.149-3.452 6.931-6.73 19.58 8.484 28.525 1.97 1.158 3.031 3.273 2.635 5.433-1.16 6.323-1.571 19.229 12.782 23.958 2.549.84 4.156 3.143 3.924 5.672-.594 6.488.735 17.847 16.832 19.451 2.569.256 4.593 2.092 5.056 4.466 1.162 5.955 5.371 15.942 20.545 15.259 2.593-.117 4.952 1.342 5.789 3.63 1.949 5.33 7.421 13.572 22.379 10.662 2.294-.446 4.604.505 5.924 2.295 2.372 3.217 7.064 7.936 15.083 9.986z" fill="#d34e3c"/><path d="m122 234.616c19.666-5.333 19.681-27.493 19.681-27.495 6.362 13.788 19.97 19.661 26.263 21.711l2.319 88.321c-8.019-2.05-12.711-6.769-15.083-9.986-1.32-1.79-3.63-2.742-5.925-2.295-14.959 2.909-20.43-5.332-22.379-10.662-.837-2.287-3.196-3.746-5.789-3.63-15.174.683-19.383-9.304-20.545-15.259-.464-2.374-2.487-4.21-5.056-4.466 30.151-5.095 6.847-30.906 26.514-36.239z" fill="#b53921"/><path d="m374.532 376.908c-15.817-15.105-28.55-31.322-36.204-41.873l-33.219 52.05c19.313 18.161 41.551 22.452 53.264 23.374 4.235.333 7.673-3.358 7.043-7.559l-.863-5.751c-.409-2.727.921-5.421 3.335-6.755l5.296-2.926c3.908-2.157 4.576-7.478 1.348-10.56z" fill="#d34e3c"/><path d="m358.374 410.459c4.235.333 7.673-3.358 7.043-7.559l-.862-5.751c-.245-1.631.143-3.244 1.002-4.567-5.731-.533-13.978-2.724-21.307-10.053-10.641-10.641.306-28.311 4.363-34.046-4.034-5.013-7.499-9.608-10.284-13.448l-33.219 52.05c19.313 18.161 41.551 22.452 53.264 23.374z" fill="#b53921"/><path d="m173.671 335.035c-7.654 10.551-20.386 26.767-36.204 41.873-3.228 3.082-2.56 8.403 1.347 10.561l5.296 2.926c2.414 1.333 3.744 4.027 3.335 6.755l-.863 5.751c-.63 4.201 2.808 7.892 7.043 7.559 11.713-.922 33.95-5.212 53.263-23.372z" fill="#d34e3c"/><path d="m199.916 376.161-26.245-41.126c-7.654 10.551-20.387 26.767-36.204 41.873-3.227 3.082-2.56 8.403 1.347 10.561l5.296 2.926c2.234 1.234 3.521 3.635 3.379 6.148 5.022-8.573 16.897-13.972 26.011-18.843 10.011-5.351 20.734-3.314 26.416-1.539z" fill="#b53921"/><path d="m298.19 179.782c-1.746 1.519-3.502 2.421-5.257 2.678-2.655.389-5.359-.694-8.04-3.218-3.007-2.832-7.73-2.511-10.468.451-2.395 2.591-4.864 3.904-7.339 3.904-.033 0-.067-.001-.099-.001-3.662-.051-6.949-2.946-9.06-5.364-2.754-3.156-7.666-3.381-10.694-.428-3.391 3.307-6.626 4.673-9.624 4.055-1.74-.357-3.266-1.342-4.565-2.547-4.043 4.909-9.915 9.517-17.881 13.196-14.828 6.847-22.631 20.961-26.701 32.847 32.546 8.196 53.303-3.09 63.289-11.232 2.464-2.007 6.039-2.007 8.501 0 9.789 7.98 29.917 19 61.37 11.71-12.46-10.482-23.51-25.735-23.432-46.051z" fill="#d34e3c"/><path d="m256 188.949c1.602-2.883 2.941-5.728 4.09-8.535-.81-.713-1.539-1.469-2.164-2.184-2.754-3.156-7.666-3.381-10.694-.428-3.391 3.307-6.626 4.673-9.624 4.055-1.74-.357-3.266-1.342-4.565-2.547-4.043 4.909-9.915 9.517-17.882 13.196-14.828 6.847-22.631 20.961-26.701 32.847 31.584 7.953 52.064-2.44 62.374-10.501-2.064-5.805-1.396-14.092 5.166-25.903z" fill="#b53921"/><path d="m294.916 394.652c-7.372 5.144-14.525 9.112-20.645 12.063v-.006c-7.043 3.396-12.727 5.474-15.788 6.492-1.616.537-3.351.537-4.967 0-3.034-1.009-8.643-3.059-15.598-6.401v.005c-6.119-2.94-13.287-6.9-20.68-12.043-1.685 5.202-4.309 11.885-8.137 18.166-4.179 6.855-3.317 15.644 2.268 21.411 29.051 30.006 59.222 31.223 89.452 0 5.584-5.768 6.447-14.557 2.268-21.411-3.856-6.325-6.489-13.058-8.173-18.276z" fill="#d34e3c"/><path d="m253.517 413.201c-3.034-1.009-8.643-3.059-15.598-6.401v.005c-6.119-2.94-13.287-6.9-20.68-12.043-1.685 5.202-4.309 11.885-8.137 18.166-4.179 6.855-3.317 15.644 2.268 21.411 18.856 19.476 38.185 26.807 57.694 21.028-.531-2.25-1.728-4.33-3.564-5.904-16.542-14.181-7.016-36.262-7.016-36.262-1.616.537-3.352.537-4.967 0z" fill="#b53921"/><path d="m298.41 174.916c1.831-20.531-2.185-33.838-5.078-40.446-1.134-2.59-.763-5.636 1.034-7.82 2.713-3.299 4.858-8.541 6.178-12.346.804-2.318-.771-4.748-3.209-5.016-15.505-1.701-42.603-10.262-58.898-10.262-18.093 0-21.477 23.076-21.477 23.076l-.58 1.3c.307-.118.605-.241.921-.354.992-.359 1.994.512 1.823 1.543-.629 3.759.887 6.512 4.27 7.749 5.502 2.013 9.285 7.198 10.472 11.163.253.847-.376 1.702-1.262 1.762-.408.028-.853.062-1.328.103.464.297.923.586 1.397.9 9.375 6.202 10.769 21.4-.617 34.178 3.693 3.403 9.208 5.282 16.23-1.565 2.396-2.336 6.307-2.181 8.507.34 4.185 4.794 11.188 9.665 18.741 1.493 2.203-2.384 5.964-2.601 8.327-.376 3.362 3.165 8.469 5.773 14.356 1.358-.07-2.199-.014-4.457.193-6.78z" fill="#e9efff"/><path d="m238.435 99.027c-18.093 0-21.477 23.076-21.477 23.076l-.58 1.3c.307-.118.605-.241.92-.354.992-.359 1.994.512 1.823 1.543-.629 3.759.887 6.512 4.27 7.749 5.502 2.013 9.285 7.198 10.472 11.163.253.847-.376 1.702-1.262 1.762-.408.028-.853.062-1.328.103.464.297.923.586 1.397.9 9.375 6.202 10.769 21.4-.617 34.178 3.693 3.403 9.208 5.282 16.23-1.565 2.396-2.336 6.307-2.181 8.507.34.799.916 1.702 1.834 2.692 2.664 14.282-32.909-1.125-60.271-8.034-67.18-7.398-7.398-.292-14.499-.292-14.499-4.63-.722-8.964-1.18-12.721-1.18z" fill="#d3dcfb"/><g><path d="m248.431 132.985c-.705 0-1.423-.104-2.131-.322-3.822-1.176-5.967-5.227-4.792-9.049l1.237-4.021c1.135-3.688 4.958-5.84 8.704-4.888l11.989 3.047c3.875.985 6.218 4.925 5.233 8.801-.984 3.876-4.93 6.218-8.8 5.233l-5.819-1.479c-1.367 1.682-3.437 2.678-5.621 2.678z" fill="#bec8f7"/></g><path d="m216.958 122.103c1.709-.616 3.453.863 3.154 2.654-.408 2.44.02 5.321 3.625 6.639 5.591 2.046 9.74 7.311 11.089 11.819.439 1.465-.63 2.948-2.156 3.053-6.422.444-22.954 2.378-30.619 10.66-1.773 1.916-4.949 1.229-5.744-1.257-2.821-8.818.1-26.156 20.651-33.568z" fill="#ffdd40"/><path d="m203.074 277.61h-37.86c.724 27.067 3.712 56.633 12.241 74.047 6.775 13.832 15.941 24.954 25.618 33.819v-107.866z" fill="#d3dcfb"/><path d="m275.779 277.61h-39.368v130.466c7.651 3.779 13.855 6.054 17.105 7.135 1.616.537 3.351.537 4.967 0 3.277-1.09 9.557-3.393 17.296-7.229z" fill="#e9efff"/><path d="m258.483 415.211c3.059-1.017 8.738-3.093 15.775-6.486-18.715-.009-18.258-18.667-18.258-18.667s0-49.442 0-75.442c0-15.397 6.408-25.184 11.634-30.605 1.706-1.769 2.302-4.191 1.827-6.401h-33.05v130.466c7.651 3.779 13.855 6.054 17.106 7.135 1.615.537 3.351.537 4.966 0z" fill="#d3dcfb"/><path d="m309.115 277.61v107.694c9.607-8.836 18.699-19.905 25.429-33.647 8.529-17.413 11.517-46.98 12.241-74.047z" fill="#e9efff"/><path d="m310.623 383.891v-106.281h-36.352v131.115c10.456-5.041 23.923-13.023 36.352-24.834z" fill="#ff4155"/><path d="m201.566 384.074c12.454 11.785 25.923 19.731 36.352 24.742v-131.206h-36.352z" fill="#e80054"/><path d="m335.418 220.593c-16.039 5.985-48.616 13.88-74.533-7.25-2.835-2.311-6.936-2.311-9.771 0-25.917 21.13-58.493 13.234-74.533 7.25-4.959-1.85-10.289 1.606-10.577 6.891-.63 11.533-1.351 30.673-.763 51.131h181.516c.589-20.458-.133-39.598-.763-51.131-.287-5.284-5.617-8.741-10.576-6.891z" fill="#4383e8"/><path d="m267.047 273.7c-28.727-22.877-16.538-59.87-16.538-59.87l-.009-.01c-25.815 20.514-58.004 12.711-73.917 6.773-4.959-1.85-10.288 1.606-10.577 6.891-.63 11.533-1.351 30.673-.763 51.131h104.365c-.125-1.855-.979-3.655-2.561-4.915z" fill="#3067d0"/><path d="m361.96 106.616c26.745-6.78 34.332-30.799 35.874-50.412-40.027-28.467-88.976-45.206-141.834-45.206-52.875 0-101.838 16.75-141.872 45.233 1.547 19.608 9.14 43.608 35.872 50.385 47.326 11.998 59.997-32.653 105.98-32.666 45.984.013 58.654 44.664 105.98 32.666z" fill="#73c3f9"/><path d="m232.67 146.269c1.526-.106 2.595-1.588 2.156-3.053-.317-1.061-.795-2.163-1.405-3.256-2.475-1.492-6.233-2.469-11.921-1.635-14.5 2.125-19.449 18.605-19.449 18.605 7.665-8.282 24.197-10.216 30.619-10.661z" fill="#ffb332"/></g></svg>