<svg height="512" viewBox="0 0 64 64" width="512" xmlns="http://www.w3.org/2000/svg"><g id="_29-communist" data-name="29-communist"><path d="m55.57 49.94 6.12 5.82a4.2 4.2 0 0 1 -2.89 7.24h-1.03a4.215 4.215 0 0 1 -3.01-1.27l-5.75-5.91-8.7-8.92-22.04-22.62 5.12-4.91 23.7 22.52z" fill="#ff3947"/><path d="m23.39 19.37-5.12 4.91-6.99 6.72-8.28-9.39 15.52-14.61 14.48 3.13z" fill="#ff3947"/><g fill="#bf111f"><path d="m19 49v3c-3.61 0-7.74 5.73-9.76 8.92a4.465 4.465 0 0 1 -8.24-2.39v-.35a4.449 4.449 0 0 1 1.71-3.51c2.66-2.09 7.57-5.95 8.29-6.67a4.938 4.938 0 0 0 1-3h3z"/><path d="m61 35a24.657 24.657 0 0 1 -5.43 14.94l-8.48-8.05c15.2-16.6-16.09-38.89-16.09-38.89l2-2c3 1 28 11 28 34z"/><path d="m49.01 55.82-.01.01a21.013 21.013 0 0 1 -11 3.17c-8.29 0-16-6-19-10l-4-4 4-3s10.35 9.66 21.31 4.9z"/></g><path d="m60.4 60.439-34.5-33.611a3.986 3.986 0 0 1 -.307-5.362l-2.2-2.1-5.12 4.91 22.037 22.624 8.7 8.92 5.75 5.91a4.215 4.215 0 0 0 3.01 1.27h1.03a4.187 4.187 0 0 0 2.97-1.23 4.236 4.236 0 0 0 .648-.87 1.993 1.993 0 0 1 -2.018-.461z" fill="#cd2e3a"/><path d="m13.508 22.636a2 2 0 0 1 -2.847-.166l-3.873-4.426-3.788 3.566 8.28 9.39 6.99-6.72 5.12-4.91 9.61-9.24-4.577-.989z" fill="#cd2e3a"/><path d="m15 45h-3a6.049 6.049 0 0 1 -.5 2.253l2.76 2.484-11.951 11.954a4.463 4.463 0 0 0 6.931-.771c1.7-2.681 4.885-7.142 8-8.5a4.442 4.442 0 0 1 1.76-.42v-3z" fill="#a1000d"/><path d="m40.31 46.9a15.879 15.879 0 0 1 -3.375 1.035l3.381 3.381a2 2 0 0 1 -1.343 3.416c-4.466.136-12.368-1.459-22.242-11.03l-1.731 1.298 4 4c3 4 10.71 10 19 10a21.013 21.013 0 0 0 11-3.17l.01-.01z" fill="#a1000d"/><path d="m57.292 45.557a6.929 6.929 0 0 1 -1.922-6.891 21.6 21.6 0 0 0 .63-3.666c1.443-16.589-14.8-27.973-23.968-33.032l-1.032 1.032s27.132 19.333 18.582 35.4a17.006 17.006 0 0 1 -2.492 3.49l4.316 4.1 4.164 3.95a26.472 26.472 0 0 0 2.435-3.721z" fill="#a1000d"/></g></svg>